# xmcd
#
# Track frame offsets:
#	150
#	14733
#	36001
#	51377
#	68879
#	73109
#	91258
#	109640
#	127064
#	152499
#	170046
#	202894
#
# Disc length: 2970 seconds
#
# Revision: 11
# Processed by: cddbd v1.5.2PL0 Copyright (c) Steve Scherf et al.
# Submitted via: Jack! The Knife 20 Magnifico
#
DISCID=a80b980c
DTITLE=Raven - Rock Until You Drop
DYEAR=1981
DGENRE=Metal
TTITLE0=Hard Ride
TTITLE1=Hell  Patrol
TTITLE2=Don't Need Your Money
TTITLE3=Over The Top
TTITLE4=39-40
TTITLE5=For The Future
TTITLE6=Rock Until You Drop
TTITLE7=Nobody's Hero
TTITLE8=Hellraiser \ Action
TTITLE9=Lambs To The Slaughter
TTITLE10=Tyrant Of The Airways
TTITLE11=Wiped Out
EXTD=Steve Thompson and Raven
EXTT0=Gallagher, Hunter, Gallagher
EXTT1=Gallagher, Hunter, Gallagher
EXTT2=Gallagher, Hunter, Gallagher
EXTT3=Gallagher, Hunter, Gallagher
EXTT4=Gallagher, Hunter, Gallagher
EXTT5=Gallagher, Hunter, Gallagher
EXTT6=Gallagher, Hunter, Gallagher
EXTT7=Gallagher, Hunter, Gallagher
EXTT8=Chinn, Chapman, Scott, Connolly, Priest, Tucker
EXTT9=Gallagher, Hunter, Gallagher
EXTT10=Gallagher, Hunter, Gallagher
EXTT11=Gallagher, Hunter, Gallagher
PLAYORDER=
